<svg id="Layer_1" data-name="Layer 1" xmlns="http://www.w3.org/2000/svg" xmlns:xlink="http://www.w3.org/1999/xlink" viewBox="0 0 229.74 277.44"><defs><style>.cls-1{fill:url(#linear-gradient);}.cls-2{fill:url(#linear-gradient-2);}.cls-3{fill:url(#linear-gradient-3);}</style><linearGradient id="linear-gradient" x1="612.05" y1="127.78" x2="307.6" y2="377.8" gradientUnits="userSpaceOnUse"><stop offset="0.13" stop-color="#ff7a59"/><stop offset="0.21" stop-color="#f07a63"/><stop offset="0.37" stop-color="#c87a7d"/><stop offset="0.59" stop-color="#887aa7"/><stop offset="0.86" stop-color="#307be0"/><stop offset="1" stop-color="#007bff"/></linearGradient><linearGradient id="linear-gradient-2" x1="454.83" y1="342.5" x2="362.08" y2="153.98" gradientUnits="userSpaceOnUse"><stop offset="0.57" stop-color="#161412" stop-opacity="0"/><stop offset="0.8" stop-color="#161412" stop-opacity="0.65"/><stop offset="0.83" stop-color="#161412" stop-opacity="0.74"/><stop offset="1" stop-color="#161412" stop-opacity="0.95"/></linearGradient><linearGradient id="linear-gradient-3" x1="423.01" y1="358.15" x2="330.27" y2="169.64" xlink:href="#linear-gradient-2"/></defs><path class="cls-1" d="M484.28,177.64c-18.75-12.74-39.73-18.72-62.33-18.95-8.89-.09-15.47,6.08-15.94,14.43a1.09,1.09,0,0,1,0,.18,12.73,12.73,0,0,0,13.09,13.19c.86,0,1.73,0,2.61,0A83.67,83.67,0,0,1,505.14,264a78.3,78.3,0,0,1,.41,10.3c-.68,26.34-10.71,49.67-24.79,71.41-12.77,19.7-29.35,35.85-48.26,49.59-3,2.16-3.37,3.92-1.51,6.87,1.71,2.72,3,5.67,4.59,8.73-1,.08-1.39.25-1.61.12-6.73-4.22-13.62-8.22-20.15-12.76-28.74-19.92-51.94-44.74-66-77.19-11-25.44-16.64-51.46-5.51-78.54a21.6,21.6,0,0,1,1.4-2.81,83.24,83.24,0,0,1,13.71-23.16v7.54c-.13.28-.27.55-.39.82.26-.1.39,0,.39.14v9c0,12.73,0,25.48,0,38.21-.1,39.08,30.71,67.59,69.64,64.44,29.07-2.37,53-25.46,56.89-55,3.86-29-13.26-57.93-40.66-67.36a77,77,0,0,0-22.81-3.84c-8.66-.23-14.37,6.34-14.49,14.53-.13,7.87,5.31,14,13.53,15.2,1.64.23,3.3.26,4.95.45A33.08,33.08,0,0,1,438.23,302a33,33,0,0,1-38.88-3.3c-8.34-7.24-11.57-16.6-11.53-27.46q.07-18.57.08-37.15,0-15.11,0-30.2c0-2.65-.06-6.51-.11-10.25l.07,0c0-2,0-3.94,0-5.91a18.59,18.59,0,0,0-.15-2.39c-1.37-12.07-12.57-17.87-23.66-11.58-2.22,1.25-4.4,2.62-6.53,4.07-2.67,1.81-5.27,3.77-7.77,5.79-27.57,22.35-42.82,51.32-43.55,86.82-.72,35.25,12.44,66.43,31.91,95.09,18.93,27.91,44,49.27,72.39,67.1,7.42,4.65,14.21,4.8,21.23-.08,9-6.24,18.21-12.17,26.75-19,34.44-27.4,59.91-61.12,72.15-104C545.52,257.1,528.27,207.52,484.28,177.64Z" transform="translate(-306.1 -158.69)"/><path class="cls-2" d="M484,281.77c-3.91,29.5-27.82,52.59-56.89,55-38.93,3.15-69.74-25.36-69.64-64.44,0-12.73,0-25.48,0-38.21V216.55a83.82,83.82,0,0,1,30.3-22.92c.05,3.74.09,7.6.11,10.25q.06,15.09,0,30.2,0,18.58-.08,37.15c0,10.86,3.19,20.22,11.53,27.46a33,33,0,0,0,38.88,3.3,33.08,33.08,0,0,0-13.74-61.24c-1.65-.19-3.31-.22-4.95-.45-8.22-1.2-13.66-7.33-13.53-15.2.12-8.19,5.83-14.76,14.49-14.53a77,77,0,0,1,22.81,3.84C470.71,223.84,487.83,252.73,484,281.77Z" transform="translate(-306.1 -158.69)"/><path class="cls-3" d="M357.06,224.91c.12-.27.26-.54.39-.82v1C357.45,224.87,357.32,224.81,357.06,224.91Z" transform="translate(-306.1 -158.69)"/></svg>